<mxfile host="app.diagrams.net" modified="2024-04-02T22:57:01.445Z" agent="Mozilla/5.0 (Macintosh; Intel Mac OS X 10_15_7) AppleWebKit/537.36 (KHTML, like Gecko) Chrome/119.0.0.0 Safari/537.36" etag="CAbllLjNOqhZytXzGI5X" version="24.2.1" type="device">
  <diagram name="Page-1" id="a_gbKATqvx_jUm0n_a3S">
    <mxGraphModel dx="954" dy="583" grid="1" gridSize="10" guides="1" tooltips="1" connect="1" arrows="1" fold="1" page="1" pageScale="1" pageWidth="850" pageHeight="1100" math="0" shadow="0">
      <root>
        <mxCell id="0" />
        <mxCell id="1" parent="0" />
        <mxCell id="ix9hHHamddGjwfZHWeok-1" value="&lt;b&gt;&lt;u&gt;Maximize West River Interceptor Storage&lt;/u&gt;&lt;/b&gt;&lt;div&gt;&lt;br&gt;&lt;/div&gt;&lt;blockquote style=&quot;margin: 0 0 0 40px; border: none; padding: 0px;&quot;&gt;&lt;div style=&quot;text-align: left;&quot;&gt;Actions:&lt;/div&gt;&lt;/blockquote&gt;&lt;div style=&quot;&quot;&gt;&lt;ol&gt;&lt;li style=&quot;text-align: left;&quot;&gt;&lt;b style=&quot;background-color: initial;&quot;&gt;Bridge Crossing Pump&lt;/b&gt;&lt;span style=&quot;text-align: left; background-color: initial;&quot;&gt; - Control Curve to target&amp;nbsp; &lt;b&gt;&lt;u&gt;&lt;font color=&quot;#ff3333&quot;&gt;???&lt;/font&gt;&lt;/u&gt;&lt;/b&gt;&amp;nbsp; West River Wet Well Depth&lt;/span&gt;&lt;/li&gt;&lt;li style=&quot;text-align: left;&quot;&gt;&lt;span style=&quot;text-align: left; background-color: initial;&quot;&gt;&lt;b&gt;Old WWTP Primary Tank&amp;nbsp;&lt;/b&gt;&amp;nbsp;- Setting = Closed&lt;/span&gt;&lt;/li&gt;&lt;/ol&gt;&lt;/div&gt;" style="rounded=0;whiteSpace=wrap;html=1;fillColor=#dae8fc;strokeColor=#6c8ebf;" vertex="1" parent="1">
          <mxGeometry x="150" y="150" width="290" height="120" as="geometry" />
        </mxCell>
        <mxCell id="ix9hHHamddGjwfZHWeok-3" value="" style="endArrow=classic;html=1;rounded=0;entryX=0.5;entryY=0;entryDx=0;entryDy=0;exitX=1;exitY=0.5;exitDx=0;exitDy=0;edgeStyle=orthogonalEdgeStyle;" edge="1" parent="1" source="ix9hHHamddGjwfZHWeok-1" target="ix9hHHamddGjwfZHWeok-5">
          <mxGeometry width="50" height="50" relative="1" as="geometry">
            <mxPoint x="400" y="330" as="sourcePoint" />
            <mxPoint x="585" y="310" as="targetPoint" />
          </mxGeometry>
        </mxCell>
        <mxCell id="ix9hHHamddGjwfZHWeok-4" value="J21 Depth&amp;nbsp;&lt;div&gt;&amp;gt; 7ft&lt;/div&gt;" style="edgeLabel;html=1;align=center;verticalAlign=middle;resizable=0;points=[];" vertex="1" connectable="0" parent="ix9hHHamddGjwfZHWeok-3">
          <mxGeometry x="0.4215" y="3" relative="1" as="geometry">
            <mxPoint as="offset" />
          </mxGeometry>
        </mxCell>
        <mxCell id="ix9hHHamddGjwfZHWeok-5" value="&lt;div style=&quot;text-align: center;&quot;&gt;&lt;b&gt;&lt;u&gt;Prevent East River CSO Activations&lt;/u&gt;&lt;/b&gt;&lt;/div&gt;&lt;div style=&quot;text-align: center;&quot;&gt;&lt;b&gt;&lt;u&gt;&lt;br&gt;&lt;/u&gt;&lt;/b&gt;&lt;/div&gt;&lt;blockquote style=&quot;margin: 0 0 0 40px; border: none; padding: 0px;&quot;&gt;&lt;div style=&quot;&quot;&gt;Actions:&lt;/div&gt;&lt;/blockquote&gt;&lt;div style=&quot;&quot;&gt;&lt;ol&gt;&lt;li style=&quot;&quot;&gt;&lt;b style=&quot;background-color: initial;&quot;&gt;Bridge Crossing Pump&lt;/b&gt;&lt;span style=&quot;background-color: initial;&quot;&gt; - Setting == &lt;u&gt;&lt;font color=&quot;#ff3333&quot;&gt;&lt;b&gt;???&lt;/b&gt;&lt;/font&gt;&lt;/u&gt;&lt;/span&gt;&lt;/li&gt;&lt;li style=&quot;&quot;&gt;&lt;span style=&quot;background-color: initial;&quot;&gt;&lt;b&gt;Old WWTP Primary Tank &lt;/b&gt;- Setting = Open&lt;/span&gt;&lt;/li&gt;&lt;/ol&gt;&lt;/div&gt;" style="rounded=0;whiteSpace=wrap;html=1;align=left;fillColor=#d5e8d4;strokeColor=#82b366;" vertex="1" parent="1">
          <mxGeometry x="370" y="320" width="290" height="110" as="geometry" />
        </mxCell>
        <mxCell id="ix9hHHamddGjwfZHWeok-6" value="" style="endArrow=classic;html=1;rounded=0;exitX=0;exitY=0.5;exitDx=0;exitDy=0;entryX=0.5;entryY=1;entryDx=0;entryDy=0;edgeStyle=orthogonalEdgeStyle;" edge="1" parent="1" source="ix9hHHamddGjwfZHWeok-5" target="ix9hHHamddGjwfZHWeok-1">
          <mxGeometry width="50" height="50" relative="1" as="geometry">
            <mxPoint x="400" y="330" as="sourcePoint" />
            <mxPoint x="450" y="280" as="targetPoint" />
          </mxGeometry>
        </mxCell>
        <mxCell id="ix9hHHamddGjwfZHWeok-7" value="J21 Depth&amp;nbsp;&lt;div&gt;&amp;lt;= 7ft&amp;nbsp;&amp;nbsp;&lt;/div&gt;" style="edgeLabel;html=1;align=center;verticalAlign=middle;resizable=0;points=[];" vertex="1" connectable="0" parent="ix9hHHamddGjwfZHWeok-6">
          <mxGeometry x="-0.0295" y="-3" relative="1" as="geometry">
            <mxPoint as="offset" />
          </mxGeometry>
        </mxCell>
      </root>
    </mxGraphModel>
  </diagram>
</mxfile>
